<svg width="1600" height="1080" viewBox="0 0 1600 1080" fill="none" xmlns="http://www.w3.org/2000/svg">
  <defs>
    <linearGradient id="bg" x1="0" y1="0" x2="1600" y2="1080" gradientUnits="userSpaceOnUse">
      <stop stop-color="#f8fbfa"/>
      <stop offset="0.48" stop-color="#edf6fb"/>
      <stop offset="1" stop-color="#fff7ed"/>
    </linearGradient>
    <linearGradient id="okxPanel" x1="80" y1="150" x2="340" y2="430" gradientUnits="userSpaceOnUse">
      <stop stop-color="#111820"/>
      <stop offset="1" stop-color="#303d48"/>
    </linearGradient>
    <linearGradient id="corePanel" x1="420" y1="130" x2="1110" y2="860" gradientUnits="userSpaceOnUse">
      <stop stop-color="#ffffff"/>
      <stop offset="1" stop-color="#eff7f2"/>
    </linearGradient>
    <filter id="shadow" x="-16%" y="-16%" width="132%" height="132%">
      <feDropShadow dx="0" dy="14" stdDeviation="16" flood-color="#17212b" flood-opacity="0.15"/>
    </filter>
    <marker id="arrow" viewBox="0 0 10 10" refX="9" refY="5" markerWidth="8" markerHeight="8" orient="auto">
      <path d="M0 0L10 5L0 10Z" fill="#536574"/>
    </marker>
    <style>
      .title{font:700 40px Arial, sans-serif;fill:#17212b}
      .subtitle{font:500 17px Arial, sans-serif;fill:#667683}
      .groupTitle{font:700 20px Arial, sans-serif;fill:#253440}
      .groupText{font:600 13px Arial, sans-serif;fill:#6b7a86}
      .cardTitle{font:700 18px Arial, sans-serif;fill:#202e39}
      .cardText{font:600 13px Arial, sans-serif;fill:#63727f}
      .whiteTitle{font:700 21px Arial, sans-serif;fill:#ffffff}
      .whiteText{font:600 14px Arial, sans-serif;fill:#d5dee6}
      .tag{font:700 12px Arial, sans-serif;fill:#ffffff}
      .box{filter:url(#shadow);stroke:#d9e3e9;stroke-width:1.4}
      .lane{stroke:#dbe7ee;stroke-width:1.2}
      .flow{stroke:#536574;stroke-width:2.8;marker-end:url(#arrow)}
      .flowSoft{stroke:#8c9aa6;stroke-width:2.2;stroke-dasharray:8 9;marker-end:url(#arrow)}
      .flowRisk{stroke:#cf5d48;stroke-width:2.8;marker-end:url(#arrow)}
      .chip{stroke-width:1.2}
    </style>
  </defs>

  <rect width="1600" height="1080" rx="36" fill="url(#bg)"/>

  <text x="74" y="76" class="title">Qiming Quant Architecture</text>
  <text x="76" y="108" class="subtitle">Personal OKX USDT perpetual system. Data first, local audit, fail closed before live execution.</text>

  <rect x="72" y="148" width="300" height="292" rx="30" fill="url(#okxPanel)" class="box"/>
  <text x="112" y="202" class="whiteTitle">OKX Exchange</text>
  <text x="112" y="232" class="whiteText">REST API</text>
  <text x="112" y="258" class="whiteText">Public WebSocket</text>
  <text x="112" y="284" class="whiteText">Private WebSocket</text>
  <circle cx="292" cy="220" r="32" fill="#f7fbfd"/>
  <rect x="274" y="202" width="14" height="14" fill="#151b22"/>
  <rect x="294" y="202" width="14" height="14" fill="#151b22"/>
  <rect x="274" y="222" width="14" height="14" fill="#151b22"/>
  <rect x="294" y="222" width="14" height="14" fill="#151b22"/>
  <rect x="112" y="330" width="210" height="46" rx="23" fill="#455361"/>
  <text x="136" y="359" class="tag">candles  balance  fills</text>

  <rect x="72" y="548" width="300" height="212" rx="30" fill="#ffffff" class="box"/>
  <text x="116" y="604" class="groupTitle">Operator</text>
  <text x="116" y="634" class="cardText">CLI commands</text>
  <text x="116" y="660" class="cardText">env config check</text>
  <text x="116" y="686" class="cardText">manual pause</text>
  <path d="M280 612h42M301 591v42" stroke="#3d8b66" stroke-width="6" stroke-linecap="round"/>

  <rect x="430" y="146" width="670" height="724" rx="36" fill="url(#corePanel)" class="box"/>
  <text x="470" y="202" class="groupTitle">Local Core</text>
  <text x="470" y="229" class="groupText">All strategy, state and safety decisions happen locally before any live action.</text>

  <rect x="470" y="268" width="250" height="132" rx="22" fill="#e6f3ff" stroke="#bad7eb" class="lane"/>
  <text x="520" y="314" class="cardTitle">OKX Gateway</text>
  <text x="520" y="342" class="cardText">signer  REST client</text>
  <text x="520" y="366" class="cardText">WS runtime  mapper</text>
  <path d="M494 324h34M494 342h54M494 360h42" stroke="#3f83a8" stroke-width="4" stroke-linecap="round"/>

  <rect x="780" y="268" width="250" height="132" rx="22" fill="#eef6ff" stroke="#c5daee" class="lane"/>
  <text x="834" y="314" class="cardTitle">Market Data</text>
  <text x="834" y="342" class="cardText">1m candle sync</text>
  <text x="834" y="366" class="cardText">gap repair  aggregate</text>
  <path d="M804 358c18-36 38-36 56 0s38 36 56 0" stroke="#4d86bd" stroke-width="4" fill="none" stroke-linecap="round"/>

  <rect x="470" y="454" width="250" height="132" rx="22" fill="#fff5dc" stroke="#ead49b" class="lane"/>
  <text x="520" y="500" class="cardTitle">Strategy Lab</text>
  <text x="520" y="528" class="cardText">signals only</text>
  <text x="520" y="552" class="cardText">backtest  simulation</text>
  <path d="M496 542h90l22-42 34 64 22-38h48" stroke="#b98020" stroke-width="4" fill="none" stroke-linecap="round"/>

  <rect x="780" y="454" width="250" height="132" rx="22" fill="#f0eaff" stroke="#d3c5ef" class="lane"/>
  <text x="834" y="500" class="cardTitle">Risk Engine</text>
  <text x="834" y="528" class="cardText">size cap  daily loss</text>
  <text x="834" y="552" class="cardText">symbol lease  policy</text>
  <path d="M904 478l44 16v32c0 30-22 44-44 54-22-10-44-24-44-54v-32l44-16z" stroke="#7963b6" stroke-width="4" fill="none"/>

  <rect x="470" y="640" width="250" height="132" rx="22" fill="#eaf8ea" stroke="#bee2bd" class="lane"/>
  <text x="520" y="686" class="cardTitle">Live State</text>
  <text x="520" y="714" class="cardText">ticker  balance</text>
  <text x="520" y="738" class="cardText">position  order  fill</text>
  <circle cx="500" cy="704" r="18" stroke="#4f915c" stroke-width="4"/>
  <path d="M494 704l8 8 16-22" stroke="#4f915c" stroke-width="4" stroke-linecap="round" stroke-linejoin="round"/>

  <rect x="780" y="640" width="250" height="132" rx="22" fill="#fff1ec" stroke="#efc6b9" class="lane"/>
  <text x="834" y="686" class="cardTitle">Execution Core</text>
  <text x="834" y="714" class="cardText">order factory</text>
  <text x="834" y="738" class="cardText">dry-run  demo order</text>
  <rect x="862" y="664" width="46" height="54" rx="9" stroke="#cf5d48" stroke-width="4"/>
  <path d="M872 664v-15c0-16 11-27 27-27s27 11 27 27v15" stroke="#cf5d48" stroke-width="4" fill="none"/>

  <rect x="430" y="918" width="670" height="78" rx="26" fill="#ffffff" class="box"/>
  <text x="480" y="965" class="groupTitle">Local Storage</text>
  <text x="640" y="965" class="cardText">candles  instruments  funding  marks  orders  fills  safety  runtime logs</text>
  <ellipse cx="456" cy="954" rx="18" ry="9" stroke="#4b8f72" stroke-width="4"/>
  <path d="M438 954v24c0 5 8 9 18 9s18-4 18-9v-24" stroke="#4b8f72" stroke-width="4" fill="none"/>

  <rect x="1188" y="148" width="338" height="196" rx="30" fill="#ffffff" class="box"/>
  <text x="1234" y="204" class="groupTitle">Pre-live Readiness</text>
  <text x="1234" y="234" class="cardText">instrument specs</text>
  <text x="1234" y="260" class="cardText">fresh mark price</text>
  <text x="1234" y="286" class="cardText">USDT balance snapshot</text>
  <path d="M1460 206l42 24v48l-42 24-42-24v-48l42-24z" stroke="#3d8b66" stroke-width="5" fill="none"/>
  <path d="M1442 256l18 18 34-48" stroke="#3d8b66" stroke-width="5" stroke-linecap="round" stroke-linejoin="round"/>

  <rect x="1188" y="410" width="338" height="196" rx="30" fill="#ffffff" class="box"/>
  <text x="1234" y="466" class="groupTitle">Trading Gate</text>
  <text x="1234" y="496" class="cardText">emergency pause</text>
  <text x="1234" y="522" class="cardText">equity drawdown</text>
  <text x="1234" y="548" class="cardText">REST reconciliation</text>
  <path d="M1458 456l54 32v60l-54 32-54-32v-60l54-32z" stroke="#cf5d48" stroke-width="5" fill="none"/>
  <path d="M1432 548h84" stroke="#cf5d48" stroke-width="6" stroke-linecap="round"/>

  <rect x="1188" y="672" width="338" height="180" rx="30" fill="#ffffff" class="box"/>
  <text x="1234" y="728" class="groupTitle">Live Boundary</text>
  <text x="1234" y="758" class="cardText">no automatic live loop yet</text>
  <text x="1234" y="784" class="cardText">BTC/ETH small-size only</text>
  <text x="1234" y="810" class="cardText">demo order CLI first</text>
  <circle cx="1460" cy="760" r="42" fill="#fff1ec" stroke="#cf5d48" stroke-width="5"/>
  <path d="M1438 760h44M1460 738v44" stroke="#cf5d48" stroke-width="6" stroke-linecap="round"/>

  <path d="M372 248C402 248 402 334 470 334" class="flow"/>
  <path d="M372 654C404 654 402 708 470 708" class="flow"/>
  <path d="M720 334H780" class="flow"/>
  <path d="M905 400V454" class="flow"/>
  <path d="M780 520H720" class="flow"/>
  <path d="M720 706H780" class="flow"/>
  <path d="M595 586V640" class="flow"/>
  <path d="M905 586V640" class="flowRisk"/>
  <path d="M595 772V918" class="flowSoft"/>
  <path d="M905 772V918" class="flowSoft"/>
  <path d="M1030 706C1108 706 1110 508 1188 508" class="flowRisk"/>
  <path d="M1100 246C1144 246 1144 246 1188 246" class="flowSoft"/>
  <path d="M1357 344V410" class="flowRisk"/>
  <path d="M1357 606V672" class="flowRisk"/>
  <path d="M1188 760C1140 760 1138 966 1100 966" class="flowSoft"/>

  <rect x="82" y="918" width="260" height="56" rx="28" fill="#17212b"/>
  <text x="132" y="953" class="tag">DATA FIRST</text>
  <rect x="1168" y="918" width="260" height="56" rx="28" fill="#3d8b66"/>
  <text x="1218" y="953" class="tag">LOCAL AUDIT</text>
  <rect x="82" y="994" width="260" height="56" rx="28" fill="#cf5d48"/>
  <text x="132" y="1029" class="tag">FAIL CLOSED</text>
  <rect x="1168" y="994" width="260" height="56" rx="28" fill="#536574"/>
  <text x="1218" y="1029" class="tag">ONE BOT PER SUBACCOUNT</text>
</svg>
